<svg xmlns="http://www.w3.org/2000/svg" width="36" height="36" viewBox="0 0 36 36">
  <g id="ico_login" transform="translate(-1657 -125.785)">
    <g id="icon_data" transform="translate(1665.201 148.4)">
      <path id="パス_197" data-name="パス 197" d="M16,22.888V12H35.113V22.888" transform="translate(-16 -12)" fill="none" stroke="#6b8597" stroke-linecap="round" stroke-linejoin="round" stroke-width="4"/>
    </g>
    <g id="パス_200" data-name="パス 200" transform="translate(1666.692 128.237)" fill="none">
      <path d="M8.2,0A8.2,8.2,0,1,1,0,8.2,8.2,8.2,0,0,1,8.2,0Z" stroke="none"/>
      <path d="M 8.200653076171875 4.000002861022949 C 5.884403228759766 4.000002861022949 4.000002861022949 5.884403228759766 4.000002861022949 8.200653076171875 C 4.000002861022949 10.51690292358398 5.884403228759766 12.4013032913208 8.200653076171875 12.4013032913208 C 10.51690292358398 12.4013032913208 12.4013032913208 10.51690292358398 12.4013032913208 8.200653076171875 C 12.4013032913208 5.884403228759766 10.51690292358398 4.000002861022949 8.200653076171875 4.000002861022949 M 8.200653076171875 3.814697265625e-06 C 12.7297534942627 3.814697265625e-06 16.40130233764648 3.671552658081055 16.40130233764648 8.200653076171875 C 16.40130233764648 12.7297534942627 12.7297534942627 16.40130233764648 8.200653076171875 16.40130233764648 C 3.671552658081055 16.40130233764648 3.814697265625e-06 12.7297534942627 3.814697265625e-06 8.200653076171875 C 3.814697265625e-06 3.671552658081055 3.671552658081055 3.814697265625e-06 8.200653076171875 3.814697265625e-06 Z" stroke="none" fill="#6b8597"/>
    </g>
    <g id="Rect_最後透明に_" data-name="Rect（最後透明に）" transform="translate(1657 126)">
      <rect id="長方形_175" data-name="長方形 175" width="36" height="36" transform="translate(0 -0.215)" fill="none"/>
    </g>
  </g>
</svg>
